<svg width="19" height="16" viewBox="0 0 19 16" fill="none" xmlns="http://www.w3.org/2000/svg">
<path d="M17.1209 0.197683C17.1209 0.197683 18.8208 -0.465129 18.6791 1.14456C18.6319 1.80738 18.2069 4.12722 17.8764 6.63646L16.7432 14.0695C16.7432 14.0695 16.6488 15.1583 15.7989 15.3477C14.9489 15.5371 13.6741 14.6849 13.438 14.4955C13.2491 14.3535 9.89672 12.223 8.71626 11.1815C8.38573 10.8974 8.00799 10.3293 8.76347 9.66646L13.7213 4.93209C14.2879 4.36396 14.8545 3.03833 12.4936 4.64802L5.88323 9.1457C5.88323 9.1457 5.12776 9.61912 3.71126 9.19304L0.642122 8.24616C0.642122 8.24616 -0.491095 7.53601 1.44482 6.82581C6.16656 4.60064 11.9743 2.32814 17.1209 0.197683Z" fill="#F0E3CA"/>
</svg>
