<svg width="21" height="13" viewBox="0 0 21 13" fill="none" xmlns="http://www.w3.org/2000/svg">
<path d="M20.524 1.061C20.2877 1.80388 19.9692 2.4505 19.5702 3.03763L19.5869 3.01138C19.1949 3.66471 18.7267 4.41954 18.1825 5.27588C17.7158 5.95196 17.4688 6.30196 17.4414 6.32588C17.3206 6.47725 17.2366 6.66275 17.2078 6.86663L17.2069 6.87275C17.2305 7.05825 17.3162 7.22013 17.4414 7.34088L17.7914 7.73113C19.6639 9.65554 20.7171 10.982 20.951 11.7106C20.9816 11.7911 20.9991 11.8839 20.9991 11.981C20.9991 12.1508 20.9449 12.3074 20.853 12.436L20.8547 12.4334C20.7007 12.5918 20.4855 12.6898 20.2475 12.6898C20.2212 12.6898 20.1941 12.6889 20.1687 12.6863H20.1723H17.8701C17.8692 12.6863 17.8675 12.6863 17.8657 12.6863C17.5709 12.6863 17.2996 12.583 17.087 12.4115L17.0896 12.4132C16.7799 12.1586 16.5042 11.883 16.2575 11.5838L16.2496 11.5733C15.8465 11.1177 15.489 10.7341 15.1769 10.4226C14.1374 9.43446 13.3703 8.94038 12.8756 8.94038C12.8572 8.93863 12.8362 8.93775 12.8144 8.93775C12.67 8.93775 12.5352 8.98238 12.4241 9.0585L12.4267 9.05675C12.3357 9.1705 12.2806 9.3175 12.2806 9.47588C12.2806 9.50738 12.2824 9.53713 12.2867 9.56775V9.56425C12.2631 9.839 12.2491 10.1584 12.2491 10.4813C12.2491 10.5854 12.2509 10.6886 12.2535 10.7919V10.777V11.7911C12.2622 11.8323 12.2675 11.8795 12.2675 11.9276C12.2675 12.1394 12.1712 12.3284 12.0207 12.4535L12.0199 12.4544C11.6812 12.6093 11.2857 12.7003 10.8684 12.7003C10.7791 12.7003 10.6916 12.6959 10.605 12.688L10.6164 12.6889C9.23912 12.6626 7.96162 12.2593 6.87575 11.5794L6.90637 11.5969C5.58425 10.7936 4.48875 9.748 3.654 8.5125L3.63037 8.47575C2.83762 7.424 2.09825 6.23575 1.46825 4.98275L1.407 4.848C1.03862 4.14625 0.657125 3.2835 0.328125 2.39625L0.275625 2.23438C0.14175 1.83538 0.0446245 1.37163 0.00437451 0.891252L0.00262451 0.869377C0.00262451 0.42721 0.262791 0.206127 0.783124 0.206127H3.08437C3.10537 0.204377 3.12987 0.203502 3.15525 0.203502C3.37225 0.203502 3.57262 0.277877 3.731 0.403002L3.72925 0.401252C3.90425 0.592877 4.03375 0.828251 4.09762 1.09075L4.10025 1.10125C4.52375 2.29738 4.97262 3.30188 5.48887 4.26438L5.43025 4.1445C5.852 4.99325 6.31837 5.72388 6.85037 6.3985L6.83025 6.37138C7.29692 6.94421 7.66092 7.23063 7.92225 7.23063C7.93012 7.2315 7.93975 7.2315 7.95025 7.2315C8.07975 7.2315 8.19262 7.1615 8.25387 7.0565L8.25475 7.05475C8.3195 6.8885 8.35712 6.69513 8.35712 6.49388C8.35712 6.451 8.35537 6.40813 8.35187 6.36613V6.37138V2.97725C8.3335 2.57738 8.2355 2.20375 8.07187 1.86863L8.07887 1.88525C7.97037 1.65425 7.84 1.45475 7.68512 1.27713L7.68775 1.28063C7.54425 1.13713 7.44625 0.949001 7.41562 0.739002L7.41475 0.733751C7.41475 0.585001 7.483 0.451127 7.58975 0.363627L7.59062 0.362752C7.6965 0.265627 7.83825 0.207002 7.99312 0.207002H8.00012H11.6279C11.6471 0.204377 11.669 0.203502 11.6917 0.203502C11.8624 0.203502 12.0155 0.280502 12.117 0.401252L12.1179 0.402127C12.208 0.566627 12.2614 0.763502 12.2614 0.971752C12.2614 1.005 12.2596 1.03738 12.257 1.06975V1.06538V5.59175C12.2552 5.61275 12.2544 5.63725 12.2544 5.66175C12.2544 5.82275 12.299 5.97413 12.376 6.10275L12.3742 6.09925C12.4381 6.19375 12.5449 6.255 12.6656 6.255H12.6665C12.8205 6.2445 12.9605 6.19375 13.0786 6.11325L13.076 6.115C13.314 5.95138 13.5187 5.765 13.6964 5.55413L13.6999 5.54975C14.231 4.9495 14.721 4.28625 15.148 3.581L15.1821 3.51975C15.4831 3.021 15.8086 2.40675 16.1035 1.77588L16.1577 1.64725L16.548 0.866751C16.6836 0.476501 17.0476 0.201752 17.4755 0.201752C17.4921 0.201752 17.5087 0.201752 17.5254 0.202627H17.5227H19.8249C20.4467 0.202627 20.68 0.488752 20.5249 1.061H20.524Z" fill="#F0E3CA"/>
</svg>
